<?xml version="1.0" standalone="no"?>
<!DOCTYPE svg PUBLIC "-//W3C//DTD SVG 20010904//EN"
 "http://www.w3.org/TR/2001/REC-SVG-20010904/DTD/svg10.dtd">
<svg version="1.0" xmlns="http://www.w3.org/2000/svg"
 width="480.000000pt" height="480.000000pt" viewBox="0 0 480.000000 480.000000"
 preserveAspectRatio="xMidYMid meet">

<g transform="translate(0.000000,480.000000) scale(0.100000,-0.100000)"
fill="#000000" stroke="none">
<path d="M937 4713 c-73 -241 -75 -416 -7 -627 l29 -89 -62 -67 c-81 -88 -122
-159 -163 -278 -90 -261 -121 -793 -64 -1067 110 -526 525 -870 1178 -975 l72
-12 -25 -30 c-55 -66 -107 -211 -128 -362 l-12 -89 -53 -18 c-81 -28 -205 -42
-301 -36 -256 18 -440 133 -596 372 -105 160 -203 249 -325 296 -73 29 -255
38 -285 16 -29 -22 -9 -55 66 -107 35 -24 84 -66 107 -94 72 -84 186 -262 266
-414 81 -154 145 -243 222 -308 114 -95 213 -147 350 -185 133 -36 392 -37
532 -2 l22 5 0 -321 0 -321 640 0 640 0 0 579 c0 464 -3 595 -15 662 -23 134
-80 284 -127 335 l-20 22 74 12 c655 106 1070 451 1178 980 56 273 27 783 -59
1051 -38 118 -88 204 -169 290 l-62 67 19 53 c45 122 55 181 55 324 1 148 -8
207 -52 343 l-26 83 -41 -7 c-165 -27 -384 -188 -540 -397 -58 -78 -58 -78
-79 -58 -88 80 -319 128 -666 138 -425 11 -741 -34 -868 -127 l-40 -29 -56 74
c-168 223 -368 370 -542 399 l-40 7 -27 -88z"/>
</g>
</svg>
