<svg aria-hidden="true" style="position: absolute; width: 0; height: 0; overflow: hidden;" version="1.1" xmlns="http://www.w3.org/2000/svg" xmlns:xlink="http://www.w3.org/1999/xlink">
<defs>
<symbol id="linkedin-icon" viewBox="0 0 32 32">
<path d="M4.231 2.15c-1.631 0.581-2.612 2.331-2.2 3.944 0.3 1.169 1.087 2.050 2.194 2.438 0.612 0.219 1.563 0.219 2.175 0 1.6-0.563 2.531-2.181 2.225-3.85-0.031-0.188-0.175-0.563-0.306-0.837-0.4-0.806-1.063-1.387-1.919-1.688-0.612-0.219-1.563-0.219-2.169-0.006z"></path>
<path d="M22.131 10.881c-1.731 0.213-3.45 1.219-4.256 2.481-0.156 0.244-0.3 0.444-0.325 0.444-0.025 0.006-0.056-0.563-0.063-1.262l-0.019-1.262h-5.563v18.75h5.813l0.031-5.531c0.038-5.456 0.038-5.538 0.175-6.019 0.306-1.1 0.788-1.769 1.531-2.137 1.462-0.725 3.363-0.412 4.075 0.669 0.225 0.337 0.438 0.919 0.569 1.556 0.1 0.469 0.113 1.094 0.144 5.994l0.038 5.469h5.75v-6.031c0-4.563-0.019-6.2-0.081-6.719-0.456-3.875-1.938-5.713-5.075-6.313-0.644-0.119-2.106-0.169-2.744-0.088z"></path>
<path d="M2.406 11.325c-0.019 0.044-0.025 4.269-0.019 9.394l0.019 9.313h5.813v-18.75l-2.894-0.019c-2.281-0.012-2.9 0-2.919 0.063z"></path>
</symbol>
<symbol id="github-icon" viewBox="0 0 32 32">
<path d="M6.247 0.58c-0.487 1.607-0.5 2.773-0.047 4.18l0.193 0.593-0.413 0.447c-0.54 0.587-0.813 1.060-1.087 1.853-0.6 1.74-0.807 5.287-0.427 7.113 0.733 3.507 3.5 5.8 7.853 6.5l0.48 0.080-0.167 0.2c-0.367 0.44-0.713 1.407-0.853 2.413l-0.080 0.593-0.353 0.12c-0.54 0.187-1.367 0.28-2.007 0.24-1.707-0.12-2.933-0.887-3.973-2.48-0.7-1.067-1.353-1.66-2.167-1.973-0.487-0.193-1.7-0.253-1.9-0.107-0.193 0.147-0.060 0.367 0.44 0.713 0.233 0.16 0.56 0.44 0.713 0.627 0.48 0.56 1.24 1.747 1.773 2.76 0.54 1.027 0.967 1.62 1.48 2.053 0.76 0.633 1.42 0.98 2.333 1.233 0.887 0.24 2.613 0.247 3.547 0.013l0.147-0.033v4.28h8.533v-3.86c0-3.093-0.020-3.967-0.1-4.413-0.153-0.893-0.533-1.893-0.847-2.233l-0.133-0.147 0.493-0.080c4.367-0.707 7.133-3.007 7.853-6.533 0.373-1.82 0.18-5.22-0.393-7.007-0.253-0.787-0.587-1.36-1.127-1.933l-0.413-0.447 0.127-0.353c0.3-0.813 0.367-1.207 0.367-2.16 0.007-0.987-0.053-1.38-0.347-2.287l-0.173-0.553-0.273 0.047c-1.1 0.18-2.56 1.253-3.6 2.647-0.387 0.52-0.387 0.52-0.527 0.387-0.587-0.533-2.127-0.853-4.44-0.92-2.833-0.073-4.94 0.227-5.787 0.847l-0.267 0.193-0.373-0.493c-1.12-1.487-2.453-2.467-3.613-2.66l-0.267-0.047-0.18 0.587z"></path>
</symbol>
</defs>
</svg>
